<?xml version="1.0" encoding="UTF-8"?>
<svg width="80px" height="80px" viewBox="0 0 80 80" version="1.1" xmlns="http://www.w3.org/2000/svg" xmlns:xlink="http://www.w3.org/1999/xlink">
    <!-- Generator: Sketch 64 (93537) - https://sketch.com -->
    <title>Food</title>
    <desc>Created with Sketch.</desc>
    <g id="Food" stroke="none" stroke-width="1" fill="none" fill-rule="evenodd">
        <g id="Group" transform="translate(39.473974, 38.017681) rotate(-1.000000) translate(-39.473974, -38.017681) translate(6.973974, 18.017681)">
            <g id="Chopstick-right" transform="translate(33.653098, 22.186820) rotate(-3.000000) translate(-33.653098, -22.186820) translate(3.153098, 6.686820)" fill="#5C7D7B">
                <path d="M29.9265574,-17.0493178 C30.4615441,-17.0993259 30.935776,-16.7061732 30.9857842,-16.1711866 C30.9881332,-16.1460565 30.9895035,-16.1208446 30.9898918,-16.095608 L31.9717355,47.710238 L31.9717355,47.710238 L31.0097101,48.5000198 L29.2171858,48.5049722 L28.8635985,47.9958801 L28.879149,-15.8997174 C28.8792941,-16.4957978 29.3330642,-16.9938407 29.9265574,-17.0493178 Z" id="Rectangle" transform="translate(30.417667, 15.678886) rotate(-295.000000) translate(-30.417667, -15.678886) "></path>
            </g>
            <g id="Chopstick-left" transform="translate(29.657907, 12.922990) rotate(2.000000) translate(-29.657907, -12.922990) translate(1.157907, 1.922990)">
                <path d="M28.4401705,-17.0852448 C28.8908764,-17.1618775 29.3183688,-16.8586313 29.3950015,-16.4079254 C29.4016673,-16.3687215 29.4054994,-16.3290882 29.4064681,-16.2893334 L30.7525008,38.9529155 L30.7525008,38.9529155 L30.4899252,39.6372668 L29.0678631,39.6244759 L27.9884417,39.321308 L27.5055271,-15.9684136 C27.5007126,-16.5196374 27.8967251,-16.9928437 28.4401705,-17.0852448 Z" id="Rectangle-Copy" fill="#89ABA8" transform="translate(29.124837, 11.195843) rotate(-288.000000) translate(-29.124837, -11.195843) "></path>
                <polygon id="Path-3" fill="#FFA17A" points="2.02476458 18.8063136 3.22926787 21.3212505 1.32590142 21.3544738 0.644145727 19.6115408"></polygon>
            </g>
        </g>
        <polygon id="Path-6" fill="#FFA17A" points="11.5768993 54.6766076 13.3335823 57.2565634 11.6053938 57.2738588 10.7265929 55.861987"></polygon>
    </g>
</svg>