<svg width="80" height="80" xmlns="http://www.w3.org/2000/svg"><g fill="none" fill-rule="evenodd"><path d="M68.982 24.072a.973.973 0 01-.319 1.392l-55.33 31.793-1.157-.459-.873-1.565.274-.556 55.892-30.964a1.155 1.155 0 011.513.359z" fill="#5C7D7B"/><path d="M63.975 22.275a.828.828 0 01-.478 1.157L11.062 40.87l-.731-.051-.404-1.364-.026-1.12 52.733-16.628a1.123 1.123 0 011.341.568z" fill="#89ABA8"/><path fill="#FFA17A" d="M9.901 38.334l1.16 2.536H9.159l-.651-1.755zM11.577 54.677l1.757 2.58-1.729.017-.878-1.412z"/></g></svg>