<svg width="22" height="15" xmlns="http://www.w3.org/2000/svg"><path d="M21.028 2.32c1.224 2.869.157 5.723-4.243 9.897-1.507 1.429-2.904 2.203-5.723 2.692l-.004.091a36.072 36.072 0 01-.285-.043L10.5 15l.002-.087c-2.845-.471-3.557-1.034-5.12-2.49C.826 8.178-.278 5.277.99 2.359 1.654.83 3.33-.158 5.459.021c1.852.156 2.355.473 3.64 1.253.588.357 1.274.909 2.057 1.654.778-.757 1.458-1.316 2.04-1.675C14.436.486 14.92.174 16.71.02c2.055-.177 3.675.794 4.317 2.3z" fill="#FFA17A" fill-rule="evenodd"/></svg>