<?xml version="1.0" encoding="UTF-8"?>
<svg width="80px" height="80px" viewBox="0 0 80 80" version="1.1" xmlns="http://www.w3.org/2000/svg" xmlns:xlink="http://www.w3.org/1999/xlink">
    <!-- Generator: Sketch 64 (93537) - https://sketch.com -->
    <title>Health</title>
    <desc>Created with Sketch.</desc>
    <g id="Health" stroke="none" stroke-width="1" fill="none" fill-rule="evenodd">
        <g id="Icon" transform="translate(10.000000, 24.000000)">
            <path d="M23.5294118,16.4705882 L37.6470588,16.5774249 C37.4910192,18.3131039 37.1652483,19.9224433 36.6697463,21.405443 C35.9264932,23.6299425 35.4327164,23.749246 34.9426335,25.2966453 C34.6159116,26.3282448 34.3446125,28.5405734 34.1287364,31.933631 L26.7364079,31.933631 C26.8690405,29.3616382 26.6506718,27.3812391 26.0813018,25.9924336 C25.6787006,24.8662614 24.8280706,21.6923129 23.5294118,16.4705882 Z" id="Hand-body" fill="#5C7D7B" transform="translate(30.588235, 24.202110) scale(-1, 1) translate(-30.588235, -24.202110) "></path>
            <g id="Group-2" transform="translate(30.000000, 16.000000) rotate(-360.000000) translate(-30.000000, -16.000000) ">
                <path d="M16.4705882,16.3406978 C20.4131316,15.3374144 25.119014,14.8357727 30.5882353,14.8357727 C36.0574566,14.8357727 40.7633389,15.3374144 44.7058824,16.3406978" id="line" stroke="#FFA17A" stroke-width="4" stroke-linecap="square"></path>
                <g id="Weight-right" transform="translate(44.705882, 0.000000)" fill="#89ABA8">
                    <path d="M1.17647059,6.9080675 L3.92156863,6.67715267 C4.57131539,6.62727896 5.09803922,7.11495912 5.09803922,7.76470588 L5.09803922,25.1764706 C5.09803922,25.8262174 4.57131539,26.3138975 3.92156863,26.2640238 L1.17647059,26.033109 C0.526723824,25.9738302 -4.39648318e-14,25.4206308 -4.39648318e-14,24.7990519 L-4.39648318e-14,8.14212453 C-4.39648318e-14,7.52054567 0.526723824,6.96734629 1.17647059,6.9080675 Z" id="Rectangle"></path>
                    <path d="M8.82352941,0.242128378 L13.2679739,0.0466227063 C13.9177206,0.020608264 14.4444444,0.526723824 14.4444444,1.17647059 L14.4444444,30.8028235 C14.4444444,31.4525703 13.9177206,31.9586859 13.2679739,31.9326714 L8.82352941,31.7371657 C8.17378265,31.7060171 7.64705882,31.1634114 7.64705882,30.525815 L7.64705882,1.4534791 C7.64705882,0.815882688 8.17378265,0.273277066 8.82352941,0.242128378 Z" id="Rectangle-Copy"></path>
                </g>
                <g id="Weight-left" transform="translate(7.794118, 16.000000) scale(-1, 1) translate(-7.794118, -16.000000) translate(0.294118, 0.000000)" fill="#89ABA8">
                    <path d="M1.17647059,6.9080675 L3.92156863,6.67715267 C4.57131539,6.62727896 5.09803922,7.11495912 5.09803922,7.76470588 L5.09803922,25.1764706 C5.09803922,25.8262174 4.57131539,26.3138975 3.92156863,26.2640238 L1.17647059,26.033109 C0.526723824,25.9738302 0,25.4206308 0,24.7990519 L0,8.14212453 C0,7.52054567 0.526723824,6.96734629 1.17647059,6.9080675 Z" id="Rectangle"></path>
                    <path d="M8.82352941,0.242128378 L13.2679739,0.0466227063 C13.9177206,0.020608264 14.4444444,0.526723824 14.4444444,1.17647059 L14.4444444,30.8028235 C14.4444444,31.4525703 13.9177206,31.9586859 13.2679739,31.9326714 L8.82352941,31.7371657 C8.17378265,31.7060171 7.64705882,31.1634114 7.64705882,30.525815 L7.64705882,1.4534791 C7.64705882,0.815882688 8.17378265,0.273277066 8.82352941,0.242128378 Z" id="Rectangle-Copy"></path>
                </g>
            </g>
            <g id="Group-3" transform="translate(23.000000, 7.500000)" fill="#5C7D7B">
                <path d="M7.98298115,0.487223103 C8.27569006,0.487223103 8.84521838,0.551366821 9.23379347,1.02508755 C9.72477576,1.62365523 9.72477576,3.61124788 9.83197246,3.61124788 C10.0206119,3.61124788 9.72477576,1.02508755 11.2488111,1.02508755 C12.5238326,1.02508755 13.1323273,1.6096506 13.078128,2.68611335 C13.0533745,5.10963353 12.9825175,6.50409729 12.8655569,6.86950462 C12.6901159,7.41761563 12.3424523,7.82352941 11.4212022,7.82352941 C10.499952,7.82352941 10.049316,7.07365202 9.83197246,7.07365202 C9.61462893,7.07365202 9.19618423,7.73309396 8.22920229,7.73309396 C7.26222035,7.73309396 6.84432399,7.07365202 6.58145236,7.07365202 C6.31858072,7.07365202 5.83875535,7.73309396 4.95961789,7.73309396 C4.08048044,7.73309396 3.43611497,7.07365202 3.1684494,7.07365202 C2.90078383,7.07365202 2.742271,7.67951585 2.07542342,7.73309396 C1.50890179,7.77861134 1.09076665,7.66436948 0.828774566,7.32412084 C0.566782478,6.9838722 0.100414125,6.03583435 0.100414125,4.32734765 C0.100414125,3.50166409 0.420135245,3.02928158 1.4433717,3.02928158 C2.5255002,2.94690184 2.50718265,4.73917738 2.61044937,4.67964699 C2.71371609,4.62011661 2.44640272,1.64992742 4.32849178,1.62365523 C6.22115192,1.62365523 6.07978878,3.63631315 6.22115192,3.61124788 C6.36251505,3.58618261 5.95181315,0.487223103 7.98298115,0.487223103 Z" id="Fingers"></path>
            </g>
            <path d="M38.4330187,12.4830821 C38.8340943,12.6307219 39.0699567,13.0463677 38.991026,13.4664024 C38.8738027,14.0900998 38.7448574,14.5429548 38.6041899,14.8249676 C38.3178571,15.3990129 37.8231062,15.6471613 37.5571001,15.9611758 C37.7693993,16.3238988 37.8283741,16.8680902 37.9112145,17.2852016 C37.9664414,17.5632758 38.0919589,18.4122401 38.2877672,19.8320943 L37.372836,27.797083 C35.3987195,23.6719155 34.4098456,20.5803684 34.4062142,18.5224417 C34.497563,17.7787657 34.8667178,16.5264941 35.5136787,14.7656267 L35.5137001,14.7656346 C35.6046867,14.5179915 35.7898528,14.3163398 36.0288564,14.2046129 C36.5781148,13.9478515 36.9801749,13.6616535 37.2350365,13.3460188 C37.3770185,13.1701805 37.4902958,12.9966638 37.5748683,12.8254689 C37.7313219,12.5087363 38.1015,12.3610469 38.4330187,12.4830821 Z" id="Thumb" fill="#5C7D7B" transform="translate(36.759155, 20.015095) scale(-1, 1) rotate(-17.000000) translate(-36.759155, -20.015095) "></path>
        </g>
    </g>
</svg>