<svg width="80" height="80" xmlns="http://www.w3.org/2000/svg"><g fill="none" fill-rule="evenodd"><path d="M47.647 40.47l-14.118.107c.156 1.736.482 3.345.978 4.828.743 2.225 1.237 2.344 1.727 3.892.327 1.031.598 3.244.814 6.637h7.392c-.133-2.572.086-4.553.655-5.942.403-1.126 1.253-4.3 2.552-9.521z" fill="#5C7D7B"/><path d="M26.47 40.34c3.943-1.003 8.649-1.504 14.118-1.504 5.47 0 10.175.501 14.118 1.505" stroke="#FFA17A" stroke-width="4" stroke-linecap="square"/><g fill="#89ABA8"><path d="M55.882 30.908l2.745-.23c.65-.05 1.177.437 1.177 1.087v17.411c0 .65-.527 1.138-1.177 1.088l-2.745-.23c-.65-.06-1.176-.613-1.176-1.235V32.142c0-.621.527-1.175 1.176-1.234zM63.53 24.242l4.444-.195c.65-.026 1.176.48 1.176 1.13v29.626c0 .65-.526 1.156-1.176 1.13l-4.445-.196c-.65-.031-1.176-.574-1.176-1.211V25.453c0-.637.527-1.18 1.176-1.21z"/></g><g fill="#89ABA8"><path d="M24.118 30.908l-2.745-.23a1.075 1.075 0 00-1.177 1.087v17.411c0 .65.527 1.138 1.177 1.088l2.745-.23c.65-.06 1.176-.613 1.176-1.235V32.142c0-.621-.527-1.175-1.176-1.234zM16.47 24.242l-4.444-.195a1.122 1.122 0 00-1.176 1.13v29.626c0 .65.526 1.156 1.176 1.13l4.445-.196c.65-.031 1.176-.574 1.176-1.211V25.453c0-.637-.527-1.18-1.176-1.21z"/></g><g fill="#5C7D7B"><path d="M40.983 31.987c.293 0 .862.064 1.25.538.492.599.492 2.586.599 2.586.189 0-.107-2.586 1.417-2.586 1.275 0 1.883.585 1.83 1.661-.026 2.424-.096 3.818-.213 4.184-.176.548-.524.954-1.445.954s-1.372-.75-1.589-.75c-.217 0-.636.66-1.603.66s-1.385-.66-1.648-.66c-.262 0-.742.66-1.621.66-.88 0-1.524-.66-1.792-.66-.267 0-.426.606-1.093.66-.566.045-.984-.07-1.246-.41-.262-.34-.729-1.288-.729-2.997 0-.825.32-1.298 1.343-1.298 1.083-.082 1.064 1.71 1.167 1.65.104-.059-.164-3.03 1.718-3.055 1.893 0 1.752 2.012 1.893 1.987.142-.025-.27-3.124 1.762-3.124z"/></g><path d="M47.36 36.323a.876.876 0 00-.82.777c-.07.63-.08 1.101-.028 1.412.106.633.507 1.015.67 1.393-.31.285-.525.788-.726 1.163-.135.25-.503 1.025-1.105 2.325l-1.454 7.885c3.094-3.368 4.944-6.035 5.549-8.002.13-.738.143-2.044.039-3.917a1 1 0 00-.329-.687c-.45-.406-.75-.797-.902-1.174a2.833 2.833 0 01-.173-.597.69.69 0 00-.72-.578z" fill="#5C7D7B"/></g></svg>