<?xml version="1.0" encoding="UTF-8"?>
<svg width="23px" height="24px" viewBox="0 0 23 24" version="1.1" xmlns="http://www.w3.org/2000/svg" xmlns:xlink="http://www.w3.org/1999/xlink">
    <!-- Generator: Sketch 64 (93537) - https://sketch.com -->
    <title>关于 - 图标</title>
    <desc>Created with Sketch.</desc>
    <g id="Page-1" stroke="none" stroke-width="1" fill="none" fill-rule="evenodd">
        <g id="Artboard" transform="translate(-119.000000, -651.000000)">
            <g id="简报" transform="translate(39.000000, 117.500000)">
                <g id="Group-4" transform="translate(21.000000, 455.000000)">
                    <g id="Group-3" transform="translate(61.000000, 0.000000)">
                        <g id="关于---图标" transform="translate(0.000000, 80.500000)">
                            <ellipse id="Outline" stroke="#5C7D7B" stroke-width="3" cx="9.75" cy="10" rx="9.75" ry="10"></ellipse>
                            <g id="Content" transform="translate(5.312500, 3.000000)">
                                <circle id="head" fill="#FFA17A" cx="4.4375" cy="2.25" r="1.75"></circle>
                                <path d="M1.02352148,5.75784437 C3.35159378,5.36567196 4.71021101,5.16491323 5.09937316,5.15556815 C5.24242698,5.15213296 5.28996983,5.15785445 5.34202051,5.20545802 C5.39407118,5.25306159 5.39660606,5.30143013 5.39450848,5.50448118 C5.38161055,6.75303445 5.23789534,11.1768789 5.31071846,11.4207341 C5.47016538,12.0342149 6.42447644,10.4542024 6.61249661,10.4443487 C6.63465542,10.4431874 6.6599566,10.4417466 6.69181282,10.4736195 C6.82959673,10.6114757 6.57596858,11.3449122 6.32705625,12.0016738 C6.21153025,12.3064921 6.07652376,12.6489742 5.72123013,13.048434 C5.31489563,13.4817546 4.60777623,13.6582209 3.7500526,13.5000418 C2.73711889,13.2924921 2.54259617,12.0204496 2.51883453,11.5670506 C2.49507289,11.1136515 2.78300743,7.91946615 2.58589506,7.44783469 C2.45448681,7.13341372 1.91972953,7.24101885 0.981623216,7.77065007 L1.02352148,5.75784437 Z" id="body" fill="#5C7D7B" transform="translate(3.856163, 9.355970) rotate(3.000000) translate(-3.856163, -9.355970) "></path>
                            </g>
                        </g>
                    </g>
                </g>
            </g>
        </g>
    </g>
</svg>