<svg width="23" height="24" xmlns="http://www.w3.org/2000/svg"><g transform="translate(2 2)" fill="none" fill-rule="evenodd"><ellipse stroke="#5C7D7B" stroke-width="3" cx="9.75" cy="10" rx="9.75" ry="10"/><g transform="translate(5.313 3)"><circle fill="#FFA17A" cx="4.438" cy="2.25" r="1.75"/><path d="M1.216 5.615c2.345-.27 3.712-.4 4.102-.389.143.004.19.013.24.063.049.05.049.099.036.301-.078 1.246-.453 5.657-.393 5.904.127.621 1.162-.907 1.35-.907.023 0 .048 0 .078.033.13.145-.16.865-.444 1.507-.131.299-.284.634-.66 1.014-.428.411-1.143.55-1.992.348-1-.26-1.128-1.54-1.128-1.995 0-.454.455-3.629.283-4.11-.115-.32-.655-.241-1.62.238l.148-2.007z" fill="#5C7D7B"/></g></g></svg>