<svg width="80" height="80" xmlns="http://www.w3.org/2000/svg"><g transform="translate(17 25)" fill="none" fill-rule="evenodd"><g stroke-linecap="round"><path d="M2.03 20.677a34.251 34.251 0 0110.22-1.563c3.46 0 6.957.52 10.491 1.563 3.452.958 6.904 1.437 10.356 1.437s6.904-.48 10.356-1.437" stroke="#5C7D7B" stroke-width="2.5"/><path d="M4.5 14.992C7.482 14.33 10.065 14 12.25 14c2.185 0 4.768.33 7.75.992M26 15.842c2.277.667 4.777 1 7.5 1s5.223-.333 7.5-1" stroke="#89ABA8" stroke-width="2"/><path d="M0 25.504c3.514-1 6.68-1.5 9.5-1.5 2.82 0 6.32.5 10.5 1.5M26.968 27.007a31.241 31.241 0 0010.087.916c3.44-.24 6.396-.987 8.867-2.242" stroke="#5C7D7B" stroke-width="2"/></g><circle fill="#FFA17A" cx="34.5" cy="6.5" r="6"/></g></svg>