<?xml version="1.0" encoding="UTF-8"?>
<svg width="80px" height="80px" viewBox="0 0 80 80" version="1.1" xmlns="http://www.w3.org/2000/svg" xmlns:xlink="http://www.w3.org/1999/xlink">
    <!-- Generator: Sketch 64 (93537) - https://sketch.com -->
    <title>语言 </title>
    <desc>Created with Sketch.</desc>
    <g id="语言-" stroke="none" stroke-width="1" fill="none" fill-rule="evenodd">
        <g id="Group" transform="translate(18.000000, 9.000000)">
            <line x1="1.5" y1="7.37122258" x2="32.442294" y2="0.5" id="back" stroke="#89ABA8" stroke-width="1.5" stroke-linecap="round" stroke-linejoin="round"></line>
            <polygon id="cover" stroke="#5C7D7B" stroke-width="3" fill="#5C7D7B" stroke-linecap="round" stroke-linejoin="round" points="11 13.8972689 44 6.85507298 44 53.812877 11 60.855073"></polygon>
            <g id="a" transform="translate(29.464796, 32.741965) rotate(-2.000000) translate(-29.464796, -32.741965) translate(19.964796, 21.241965)" stroke="#FFFFFF" stroke-linecap="round" stroke-linejoin="round" stroke-width="2">
                <line x1="0.915245436" y1="6.62527519" x2="12.3474534" y2="4.31189083" id="Path-3-Copy-3"></line>
                <path d="M5.57872789,1.88346887 C5.48934167,6.40155512 5.60488726,9.71034795 5.92536467,11.8098474 C6.2487647,13.9284933 6.70802153,15.7277392 8.22119059,17.3258382 C9.73435965,18.9239373 10.3891525,20.0085125 12.4220921,20.5614543" id="Path-4" transform="translate(8.985789, 11.222462) rotate(2.000000) translate(-8.985789, -11.222462) "></path>
                <path d="M11.258198,8.13141464 C11.6823745,11.4629153 11.4490131,13.5956441 10.7710253,15.7106676 C9.9716882,17.9774884 8.47015669,21.1456127 6.37623375,21.564018 C4.2823108,21.9824234 3.01769084,20.7099761 2.26927583,19.4792818 C1.52086083,18.2485875 1.84479992,16.4418484 2.48527019,14.8353997 C3.66112203,11.8860891 7.69946852,8.67373946 13.4944889,9.76408583 C14.8352636,10.0256112 15.7046881,10.7070632 16.4358416,11.5604217 C17.9280768,13.4295429 18.1488724,16.2060704 16.8886792,18.3460786" id="Path-5" transform="translate(9.773618, 14.888362) rotate(3.000000) translate(-9.773618, -14.888362) "></path>
            </g>
            <path d="M0.5,7 C0.864267985,6.79496257 1.11579895,6.68397145 1.2545929,6.66702665 C0.840789795,6.79948425 0.744301135,7.22251914 0.782313536,7.25696303 C2.82142467,9.10464747 4.39398683,10.3454327 5.5,10.9793187 C6.60097933,11.6103197 8.12753428,12.1698182 10.1531372,12.6578979 C10.1977011,12.6686359 10.1704407,12.5895538 10.5640259,12.473053 C10.5903704,12.4792604 10.5690285,12.5653328 10.5,12.7312701 L10.5,62.2623749 C10.6698201,62.3438772 10.9216868,62.3652852 11.2556,62.3265991 C10.8786875,62.4123942 10.6268209,62.4702278 10.5,62.5000999 C7.71436798,62.137371 5.43039559,61.4452607 3.64808283,60.4237691 C1.86577008,59.4022776 0.816409132,58.1314424 0.5,56.6112636 L0.5,7 Z" id="side" fill="#FFA17A"></path>
            <line x1="12" y1="10.4360965" x2="35.127492" y2="4.88070718" id="page2" stroke="#89ABA8" stroke-linecap="round" stroke-linejoin="round"></line>
            <line x1="9" y1="8.87122258" x2="31.6949899" y2="3.39948569" id="page1" stroke="#89ABA8" stroke-linecap="round" stroke-linejoin="round"></line>
        </g>
    </g>
</svg>