<svg width="80" height="80" xmlns="http://www.w3.org/2000/svg"><g fill="none" fill-rule="evenodd"><path stroke="#89ABA8" stroke-width="1.5" stroke-linecap="round" stroke-linejoin="round" d="M19.5 16.371L50.442 9.5"/><path stroke="#5C7D7B" stroke-width="3" fill="#5C7D7B" stroke-linecap="round" stroke-linejoin="round" d="M29 22.897l33-7.042v46.958l-33 7.042z"/><g stroke="#FFF" stroke-linecap="round" stroke-linejoin="round" stroke-width="2"><path d="M38.715 37.17l11.344-2.711M43.534 32.144c-.09 4.518.026 7.826.347 9.926.323 2.119.782 3.918 2.296 5.516 1.513 1.598 2.168 2.683 4.2 3.236"/><path d="M49.459 38.389c.366 3.338.095 5.466-.62 7.57-.838 2.252-2.395 5.393-4.496 5.775-2.1.382-3.343-.912-4.07-2.156-.727-1.244-.371-3.044.297-4.64 1.227-2.928 5.321-6.07 11.096-4.878 1.336.285 2.194.982 2.91 1.848 1.46 1.894 1.631 4.674.334 6.792"/></g><path d="M18.5 16c.364-.205.616-.316.755-.333-.414.132-.51.556-.473.59 2.04 1.848 3.612 3.088 4.718 3.722 1.101.631 2.628 1.19 4.653 1.679.045.01.017-.068.411-.185.026.006.005.092-.064.258v49.531c.17.082.422.103.756.065-.377.085-.63.143-.756.173-2.786-.363-5.07-1.055-6.852-2.076-1.782-1.022-2.832-2.293-3.148-3.813V16z" fill="#FFA17A"/><path stroke="#89ABA8" stroke-linecap="round" stroke-linejoin="round" d="M30 19.436l23.127-5.555M27 17.871l22.695-5.472"/></g></svg>