<svg width="24" height="24" xmlns="http://www.w3.org/2000/svg"><path d="M12 4a8 8 0 110 16 8 8 0 010-16zm.087 4.364c-1.056 0-1.972.445-1.998 1.492a.55.55 0 00.488.262c.306 0 .576-.149.655-.576l.166-.855c.105-.018.2-.027.288-.027.672 0 1.056.437 1.056 1.283 0 .969-.506 1.405-1.283 1.405h-.297v.34h.34c.89 0 1.37.498 1.37 1.458 0 .978-.497 1.466-1.404 1.466-.123 0-.219-.008-.323-.035l-.14-.855c-.078-.585-.297-.75-.646-.75a.54.54 0 00-.54.392c.078.978.776 1.554 2.102 1.554 1.493 0 2.4-.733 2.4-1.79 0-.846-.48-1.457-1.841-1.657 1.204-.236 1.65-.82 1.65-1.563 0-.907-.655-1.544-2.043-1.544z" fill="#5C7D7B" fill-rule="evenodd"/></svg>