<?xml version="1.0" encoding="UTF-8"?>
<svg width="24px" height="24px" viewBox="0 0 24 24" version="1.1" xmlns="http://www.w3.org/2000/svg" xmlns:xlink="http://www.w3.org/1999/xlink">
    <!-- Generator: Sketch 64 (93537) - https://sketch.com -->
    <title>list-marker-8@35px</title>
    <desc>Created with Sketch.</desc>
    <g id="list-marker-8@35px" stroke="none" stroke-width="1" fill="none" fill-rule="evenodd">
        <path d="M12,4 C16.418278,4 20,7.581722 20,12 C20,16.418278 16.418278,20 12,20 C7.581722,20 4,16.418278 4,12 C4,7.581722 7.581722,4 12,4 Z M12.0698182,8.36363636 C10.8567273,8.36363636 9.94909091,9.04436364 9.94909091,10.1090909 C9.94909091,10.8770909 10.3941818,11.4792727 11.2669091,11.9069091 C10.3243636,12.2298182 9.81818182,12.7447273 9.81818182,13.4865455 C9.81818182,14.3156364 10.4901818,14.9178182 11.8952727,14.9178182 C13.4312727,14.9178182 14.2516364,14.2196364 14.2516364,13.1461818 C14.2516364,12.3345455 13.7629091,11.7149091 12.7243636,11.2174545 C13.6669091,10.8247273 14.0334545,10.3272727 14.0334545,9.76872727 C14.0334545,9.00072727 13.4050909,8.36363636 12.0698182,8.36363636 Z M11.4676364,11.9941818 C12.6370909,12.5090909 12.9949091,12.9803636 12.9949091,13.5912727 C12.9949091,14.2283636 12.6458182,14.6123636 12.0174545,14.6123636 C11.3541818,14.6123636 10.9614545,14.176 10.9614545,13.2596364 C10.9614545,12.7272727 11.1185455,12.3694545 11.4589091,11.9941818 L11.4676364,11.9941818 Z M12.0436364,8.66909091 C12.6021818,8.66909091 12.9338182,9.13163636 12.9338182,9.80363636 C12.9338182,10.2923636 12.8116364,10.7287273 12.5323636,11.1301818 C11.3716364,10.6065455 11.1098182,10.144 11.1098182,9.62909091 C11.1098182,9.03563636 11.5549091,8.66909091 12.0436364,8.66909091 Z" id="Combined-Shape" fill="#89ABA8"></path>
    </g>
</svg>