<?xml version="1.0" encoding="UTF-8"?>
<svg width="24px" height="24px" viewBox="0 0 24 24" version="1.1" xmlns="http://www.w3.org/2000/svg" xmlns:xlink="http://www.w3.org/1999/xlink">
    <!-- Generator: Sketch 64 (93537) - https://sketch.com -->
    <title>list-marker-9@35px</title>
    <desc>Created with Sketch.</desc>
    <g id="list-marker-9@35px" stroke="none" stroke-width="1" fill="none" fill-rule="evenodd">
        <path d="M12,4 C16.418278,4 20,7.581722 20,12 C20,16.418278 16.418278,20 12,20 C7.581722,20 4,16.418278 4,12 C4,7.581722 7.581722,4 12,4 Z M12.1047273,8.36363636 C10.8916364,8.36363636 9.82690909,9.07054545 9.81818182,10.432 C9.81818182,11.6538182 10.6385455,12.3432727 11.7818182,12.3432727 C12.2792727,12.3432727 12.6894545,12.1949091 12.9687273,11.9854545 C12.7156364,13.3643636 11.9301818,14.1847273 10.4378182,14.6996364 L10.4814545,14.9614545 C12.8814545,14.5163636 14.4872727,13.0501818 14.4872727,11.0254545 C14.4872727,9.34981818 13.6145455,8.36363636 12.1047273,8.36363636 Z M12.1221818,8.66036364 C12.6807273,8.66036364 13.0647273,9.20145455 13.0647273,10.8421818 C13.0647273,11.1563636 13.0472727,11.4530909 13.0123636,11.7323636 C12.8116364,11.872 12.6021818,11.9418182 12.3403636,11.9418182 C11.6421818,11.9418182 11.2145455,11.3047273 11.2145455,10.2487273 C11.2145455,9.13163636 11.6334545,8.66036364 12.1221818,8.66036364 Z" id="Combined-Shape" fill="#5C7D7B"></path>
    </g>
</svg>