<svg width="24" height="24" xmlns="http://www.w3.org/2000/svg"><path d="M12 4a8 8 0 110 16 8 8 0 010-16zm.07 4.364c-1.213 0-2.12.68-2.12 1.745 0 .768.444 1.37 1.317 1.798-.943.323-1.449.838-1.449 1.58 0 .829.672 1.43 2.077 1.43 1.536 0 2.357-.697 2.357-1.77 0-.812-.49-1.432-1.528-1.93.943-.392 1.31-.89 1.31-1.448 0-.768-.629-1.405-1.964-1.405zm-.602 3.63c1.17.515 1.527.986 1.527 1.597 0 .637-.35 1.021-.978 1.021-.663 0-1.056-.436-1.056-1.352 0-.533.158-.89.498-1.266h.009zm.576-3.325c.558 0 .89.463.89 1.135 0 .488-.122.925-.402 1.326-1.16-.523-1.422-.986-1.422-1.5 0-.594.445-.96.934-.96z" fill="#89ABA8" fill-rule="evenodd"/></svg>