<svg width="24" height="24" xmlns="http://www.w3.org/2000/svg"><path d="M12 4a8 8 0 110 16 8 8 0 010-16zm2.182 4.364H10.63l-.21 2.923.253.166a3.176 3.176 0 011.004-.148c.777 0 1.248.523 1.248 1.562 0 1.004-.532 1.597-1.326 1.597-.192 0-.332-.017-.472-.07l-.122-.864c-.061-.515-.262-.707-.62-.707a.601.601 0 00-.567.393c.07.951.812 1.553 2.034 1.553 1.483 0 2.565-.724 2.565-2.06 0-1.204-.907-1.876-2.382-1.876-.419 0-.803.044-1.178.158l.113-1.554h3.212V8.364z" fill="#5C7D7B" fill-rule="evenodd"/></svg>