<?xml version="1.0" encoding="UTF-8"?>
<svg width="24px" height="24px" viewBox="0 0 24 24" version="1.1" xmlns="http://www.w3.org/2000/svg" xmlns:xlink="http://www.w3.org/1999/xlink">
    <!-- Generator: Sketch 64 (93537) - https://sketch.com -->
    <title>list-marker-6@35px</title>
    <desc>Created with Sketch.</desc>
    <g id="list-marker-6@35px" stroke="none" stroke-width="1" fill="none" fill-rule="evenodd">
        <path d="M12,4 C16.418278,4 20,7.581722 20,12 C20,16.418278 16.418278,20 12,20 C7.581722,20 4,16.418278 4,12 C4,7.581722 7.581722,4 12,4 Z M14.0596364,8.36363636 C11.5549091,8.59054545 9.81818182,10.2487273 9.81818182,12.2647273 C9.81818182,13.9490909 10.7607273,14.9178182 12.2443636,14.9178182 C13.6407273,14.9178182 14.4872727,14.0450909 14.4872727,12.8407273 C14.4872727,11.6974545 13.8327273,10.8858182 12.7069091,10.8858182 C12.1483636,10.8858182 11.6770909,11.0603636 11.2930909,11.4007273 C11.52,9.97818182 12.4887273,8.95709091 14.112,8.58181818 L14.0596364,8.36363636 Z M12.1658182,11.3745455 C12.7767273,11.3745455 13.0909091,11.9156364 13.0909091,12.9105455 C13.0909091,14.1236364 12.7243636,14.6123636 12.2443636,14.6123636 C11.6509091,14.6123636 11.2407273,13.8530909 11.2407273,12.0727273 C11.2407273,11.9505455 11.2494545,11.8283636 11.2581818,11.7149091 C11.5287273,11.4618182 11.8516364,11.3745455 12.1658182,11.3745455 Z" id="Combined-Shape" fill="#89ABA8"></path>
    </g>
</svg>