<svg width="24" height="24" xmlns="http://www.w3.org/2000/svg"><path d="M12 4a8 8 0 110 16 8 8 0 010-16zm2.06 4.364c-2.505.227-4.242 1.885-4.242 3.9 0 1.685.943 2.654 2.426 2.654 1.397 0 2.243-.873 2.243-2.077 0-1.144-.654-1.955-1.78-1.955-.559 0-1.03.174-1.414.515.227-1.423 1.196-2.444 2.819-2.82l-.052-.217zm-1.894 3.01c.61 0 .925.542.925 1.537 0 1.213-.367 1.701-.847 1.701-.593 0-1.003-.759-1.003-2.54 0-.121.008-.244.017-.357.27-.253.594-.34.908-.34z" fill="#89ABA8" fill-rule="evenodd"/></svg>