<?xml version="1.0" encoding="UTF-8"?>
<svg width="87px" height="54px" viewBox="0 0 87 54" version="1.1" xmlns="http://www.w3.org/2000/svg" xmlns:xlink="http://www.w3.org/1999/xlink">
    <title>Logo@medium</title>
    <g id="Main" stroke="none" stroke-width="1" fill="none" fill-rule="evenodd" opacity="0.62">
        <g id="Mobile-#菜单模式" transform="translate(-210.000000, -2459.000000)" fill-rule="nonzero">
            <g id="页尾" transform="translate(-1.000000, 2391.000000)">
                <g id="Logo@medium" transform="translate(211.000000, 68.000000)">
                    <g id="Wave" transform="translate(3.500000, 0.000000)" fill="#004E4F">
                        <path d="M12.84064,33.6548587 C12.84064,33.8166532 12.8366547,33.9777846 12.8286841,34.138253 C12.9024122,34.0905103 12.9741476,34.0407784 13.0498683,33.995025 C13.3427879,33.8179794 13.6476635,33.6548587 13.9465611,33.5016843 C15.7834797,32.5911512 17.7512104,31.9716977 19.7790492,31.6655817 C22.5089369,31.2414061 25.3019883,31.5151737 27.8971074,32.4612925 C29.1864977,32.9520183 30.406839,33.6072926 31.5277167,34.4107839 L33.1537195,35.6142965 C33.6797792,36.0240875 34.245692,36.3801681 34.7956635,36.7521629 C37.0210198,38.2174792 39.4071566,39.4235452 41.9074333,40.3467864 L42.8479643,40.6869527 L43.8004513,40.9793764 C44.4321215,41.1783041 45.0837182,41.3314785 45.7273444,41.500567 C47.0242769,41.8042738 48.33854,42.028815 49.6628291,42.1729426 C50.3223965,42.2604708 50.9879417,42.29031 51.6554797,42.3380526 C51.9882523,42.3579454 52.321025,42.3599346 52.6518049,42.3718703 L53.1519602,42.383806 L53.6521155,42.383806 C54.9836728,42.383806 56.3141876,42.3094488 57.6374166,42.1610069 C60.2964471,41.8620083 62.9211735,41.3125083 65.4765037,40.5198535 C66.4157064,40.2360499 67.3456099,39.9217442 68.2662145,39.5769362 C62.0447369,34.241363 56.9860332,27.6881658 53.4030342,20.3227245 C53.175872,19.8545813 52.955352,19.3844488 52.7414742,18.9123271 C49.3499069,12.0911961 43.8579495,6.53463503 37.0712705,3.05778973 L37.0613072,3.05778973 C35.7569764,2.38776707 34.4119722,1.79978415 33.0341605,1.29727962 C25.8140066,-1.11225323 17.8895739,-0.132374768 11.476494,3.96294589 C5.06341409,8.05826655 0.849870359,14.8295633 0.0139485537,22.3836154 C0.0139485537,22.4651758 0,22.5487254 0,22.632275 C0,23.277334 0.257854145,23.8957344 0.71531368,24.3513002 C1.17277321,24.8068659 1.79285197,25.0622382 2.43900425,25.0611822 C2.56367757,25.0616227 2.68821688,25.0529795 2.8116299,25.0353216 C3.24350426,24.9688983 3.67984637,24.9356461 4.11681599,24.9358577 C6.43208284,24.9363846 8.65222513,25.8554778 10.2884315,27.4907796 C11.9246378,29.1260813 12.842755,31.3435125 12.84064,33.6548587 Z" id="Path"></path>
                        <path d="M42.8280378,47.4783443 C42.9994058,47.5519475 43.1727664,47.6116258 43.3481196,47.677272 L43.8741794,47.8543176 C44.2248859,47.9677064 44.571607,48.1029772 44.9282915,48.2004518 L45.9943595,48.4988433 C46.3490513,48.6062643 46.7097211,48.6818568 47.0703908,48.7654065 C47.4310606,48.8489561 47.7897376,48.9384736 48.1524,49.006109 C48.8817101,49.1294441 49.6070349,49.2806292 50.3443156,49.3562217 C51.8122056,49.5494477 53.2913942,49.6444818 54.7719851,49.6407975 L55.8838841,49.6407975 L56.9957831,49.5849886 C57.3664161,49.5730529 57.7350564,49.5352566 58.1056894,49.5014389 C58.4763224,49.4676212 58.8449628,49.4437499 59.2116105,49.3880501 C62.1691141,49.0226416 65.0806774,48.3519825 67.8995668,47.3868375 C70.2724237,46.5856181 72.583418,45.6122556 74.8140641,44.4745361 C72.675681,43.0944667 70.6277218,41.5795361 68.6826785,39.9389846 C65.172279,41.3793399 61.4875694,42.3531316 57.7231005,42.8353718 C55.0225159,43.1814322 52.2906888,43.2114749 49.5831231,42.9248893 C48.2277567,42.7837563 46.8822314,42.560546 45.5539838,42.2564922 C44.8944164,42.0874037 44.2288712,41.9441758 43.5812597,41.7333124 L42.598883,41.4209959 L41.6364328,41.0788403 L41.1542114,40.9077625 C40.9947993,40.8500734 40.8393726,40.7804487 40.6819532,40.7088348 L39.7374369,40.3109794 C39.4186128,40.1876442 39.1177225,40.0265128 38.8068691,39.8872634 C38.4960156,39.748014 38.1891474,39.5988182 37.8862645,39.4476332 L36.9875791,38.9622496 C36.6886815,38.7971396 36.389784,38.6459546 36.0968643,38.4629411 L35.2260761,37.9318041 L34.7896856,37.6672303 L34.3672437,37.3807744 C33.8073089,36.996844 33.2334255,36.630817 32.6993952,36.2110796 L31.0873409,35.0015992 C30.0221399,34.229145 28.8614477,33.5972943 27.6340775,33.1217324 C25.1581429,32.1701385 22.4806254,31.8621122 19.8527772,32.2265578 C18.5341048,32.3946152 17.2356823,32.6945128 15.9770719,33.1217324 C15.3471863,33.3351331 14.7292385,33.5821593 14.1258996,33.8617435 C13.8250094,34.0029821 13.5281044,34.1481994 13.2351848,34.3093308 C13.091714,34.3889019 12.9482431,34.4704622 12.8107503,34.5579904 L12.7908237,34.5739046 C12.7325886,35.1523058 12.6191568,35.7238333 12.4520732,36.2807043 L12.5995293,36.1991439 C13.3445666,35.7980976 14.1146527,35.4452684 14.905026,35.1428378 C16.4878681,34.5240101 18.1513667,34.1347981 19.8448066,33.9870679 C21.5462342,33.8268645 23.262668,33.9847249 24.906139,34.4525587 C25.7217497,34.6985005 26.5107584,35.0250315 27.2614519,35.4273044 C28.0026953,35.8405328 28.6945843,36.3363812 29.3238452,36.9053372 L29.2541024,36.9868976 C28.5821244,36.493312 27.8733326,36.0517321 27.1339223,35.6660177 C26.3913566,35.295009 25.6145933,34.9965547 24.814477,34.7748216 C23.2035983,34.3644429 21.5346453,34.229915 19.8786817,34.3769662 C19.0501853,34.4473856 18.2269315,34.5696348 17.413773,34.7429932 C16.5989672,34.9203175 15.7946842,35.1427978 15.0046585,35.4094009 C14.2109989,35.6732211 13.4360881,35.9902371 12.6852133,36.3582861 L12.3743598,36.5194175 C12.1145852,37.306072 11.7362922,38.0486322 11.2524975,38.7215471 C13.1890535,37.6579467 15.2872831,36.9187279 17.4635892,36.5333424 C18.9878787,36.2691839 20.5409801,36.2123043 22.0805605,36.3642539 C23.628454,36.521877 25.1445816,36.9066351 26.5799654,37.5060989 C28.0081119,38.1152337 29.348389,38.9120175 30.5652665,39.8753277 C30.7206932,39.9926951 30.870142,40.1160302 31.0175981,40.2413547 L31.4559813,40.6034031 L32.3187989,41.3076071 C32.8807264,41.7929907 33.4844995,42.2246638 34.080302,42.6662833 C35.2752928,43.5420886 36.5194032,44.3490592 37.8065585,45.0832548 C37.9639779,45.1807294 38.1253826,45.2702468 38.2907726,45.3537965 L38.7809646,45.6124025 C39.1077593,45.7834803 39.4325613,45.9605259 39.7633413,46.1276252 L40.7696298,46.593116 C41.1063878,46.7482796 41.4391604,46.9074218 41.7858816,47.0367248 L42.8280378,47.4783443 Z M47.9790394,45.8371908 C49.7675584,46.1798335 51.5793182,46.3879661 53.3990489,46.4598345 C55.2114411,46.5299325 57.0265271,46.447417 58.8250363,46.2131641 C59.0482131,46.1813357 59.2753753,46.1614429 59.4985522,46.1216574 L60.1680827,46.00429 C60.6164291,45.9366546 61.0587975,45.83918 61.5031586,45.7436948 C61.9475197,45.6482095 62.3859028,45.5447671 62.8262785,45.4234212 C63.2666543,45.3020753 63.7010521,45.1827187 64.1374426,45.0554049 C65.8816993,44.5225347 67.5874036,43.8711841 69.2426133,43.1059135 L69.3482237,43.3048412 C67.7470302,44.2231574 66.063192,44.989725 64.3187738,45.594499 C63.8803907,45.7377269 63.4440002,45.8968691 62.9976465,46.0162257 C62.5512928,46.1355823 62.1069317,46.2748317 61.6546,46.3723063 C61.2022684,46.4697808 60.753922,46.5911267 60.2956124,46.6667193 L59.6101406,46.7900544 C59.3829784,46.8338185 59.151831,46.8557006 58.9226762,46.8895183 C57.084416,47.1515661 55.2235008,47.2182482 53.3711518,47.088446 C51.5239335,46.9530491 49.6978219,46.6107323 47.9272305,46.0679469 L47.9790394,45.8371908 Z" id="Shape"></path>
                        <path d="M33.3988155,43.6489861 C32.8010204,43.1894631 32.1733354,42.7418758 31.60543,42.240578 L29.88378,40.7943737 C28.7542886,39.8733503 27.5064489,39.1073151 26.1734647,38.5166516 C23.5172615,37.3230854 20.5103519,36.9769512 17.6050674,37.3767959 C16.1398652,37.5797734 14.7012679,37.9419823 13.3148908,38.4569732 C12.6201845,38.7163985 11.9409099,39.0152781 11.2803946,39.3521479 C10.9516073,39.5192471 10.6248126,39.6943035 10.3099738,39.8852741 C10.2482017,39.9230704 10.1904148,39.9648452 10.1286426,40.0026414 C10.0668705,40.0404377 9.99314241,40.1219981 9.92937759,40.1776978 C9.80981856,40.2711938 9.57468579,40.4741001 9.57269314,40.4760894 C8.49218865,41.5410235 8.33769812,43.2283269 9.2069008,44.4711735 C10.0761035,45.7140201 11.7159929,46.1506437 13.0897213,45.5049815 L13.0897213,45.5049815 L13.2889864,45.3975606 C19.7492749,42.0000803 27.3674982,41.5647025 34.1739566,44.2039944 C33.9049488,44.0050667 33.6498895,43.8240425 33.3988155,43.6489861 Z" id="Path"></path>
                        <path d="M75.368021,44.8087346 C73.062225,46.1116922 70.6561288,47.2292214 68.1725599,48.1507199 C66.7485363,48.6812784 65.295561,49.1309116 63.8206112,49.4974604 C63.4539635,49.5969242 63.0813378,49.6804739 62.7107048,49.7620342 C62.3400718,49.8435946 61.9694388,49.9351013 61.5928279,49.9987582 L60.4709656,50.2076323 L59.3391401,50.3767208 C53.3153576,51.2380777 47.0126039,50.5298951 41.3634397,48.1706126 C54.1330167,55.5508852 69.8243314,55.7866095 82.8105707,48.7932563 C80.2380514,47.6432803 77.7509008,46.3117332 75.368021,44.8087346 L75.368021,44.8087346 Z" id="Path"></path>
                    </g>
                    <path d="M5.5,34.5 C5.5,35.8807119 4.38071187,37 3,37 C1.61928813,37 0.5,35.8807119 0.5,34.5 C0.5,33.1192881 1.61928813,32 3,32 C4.38071187,32 5.5,33.1192881 5.5,34.5 Z" id="Sun" fill="#F39367"></path>
                </g>
            </g>
        </g>
    </g>
</svg>