<?xml version="1.0" encoding="UTF-8"?>
<svg width="263px" height="171px" viewBox="0 0 263 171" version="1.1" xmlns="http://www.w3.org/2000/svg" xmlns:xlink="http://www.w3.org/1999/xlink">
    <title>Logo</title>
    <g id="Main" stroke="none" stroke-width="1" fill="none" fill-rule="evenodd" opacity="0.18">
        <g id="Mobile-#菜单模式" transform="translate(-27.000000, -17.000000)" fill-rule="nonzero">
            <g id="dreamlong" transform="translate(27.000000, 17.000000)">
                <g id="Logo" transform="translate(0.853234, 0.000000)">
                    <g id="Wave" transform="translate(5.243900, 0.364506)" fill="#004E4F">
                        <path d="M39.7595721,106.573719 C39.7595721,107.086068 39.7472321,107.596318 39.722552,108.104468 C39.9508425,107.953283 40.172963,107.795798 40.4074236,107.650913 C41.3144157,107.090268 42.2584279,106.573719 43.18393,106.088667 C48.8717384,103.205312 54.9645913,101.243709 61.2435618,100.274342 C69.6963468,98.9311194 78.3447106,99.79805 86.3802001,102.794093 C90.3726495,104.348058 94.1512966,106.423093 97.6219661,108.967482 L102.656698,112.778605 C104.285582,114.076277 106.037866,115.203866 107.74079,116.381849 C114.63135,121.022017 122.01975,124.841226 129.761571,127.764823 L132.673817,128.842017 L135.623084,129.768025 C137.578979,130.397963 139.596573,130.883015 141.589488,131.418462 C145.605291,132.3802 149.674756,133.091247 153.775266,133.547652 C155.817541,133.824824 157.878326,133.919315 159.94528,134.0705 C160.975673,134.133494 162.006065,134.139793 163.030288,134.177589 L164.578961,134.215386 L166.127635,134.215386 C170.250649,134.215386 174.370436,133.979921 178.467663,133.509855 C186.701047,132.563026 194.828212,130.822943 202.7405,128.312869 C205.648633,127.414158 208.527973,126.418857 211.37852,125.326965 C192.114426,108.430983 176.450729,87.6791916 165.356383,64.3552942 C164.653001,62.8728408 163.970186,61.384088 163.307938,59.8890358 C152.806338,38.2887877 135.801121,20.6930109 114.786946,9.68300081 L114.756096,9.68300081 C110.717385,7.5612624 106.552733,5.69931646 102.286497,4.10805213 C79.930117,-3.52213524 55.3930179,-0.419186767 35.5356501,12.5493287 C15.6782822,25.5178441 2.63152629,46.9602838 0.0431901,70.8814488 C0.0431901,71.1397232 0,71.4042971 0,71.6688709 C0,73.7115577 0.798415845,75.6698257 2.21488694,77.1124505 C3.63135803,78.5550753 5.55136093,79.3637541 7.55209749,79.3604103 C7.93813418,79.3618052 8.32375589,79.3344352 8.70589016,79.2785184 C10.0431397,79.0681779 11.3942231,78.9628794 12.7472495,78.9635495 C19.9162083,78.9652179 26.7906248,81.8756798 31.8569504,87.0541353 C36.923276,92.2325907 39.7661208,99.2544562 39.7595721,106.573719 Z" id="Path"></path>
                        <path d="M132.612117,150.34809 C133.142738,150.581167 133.67953,150.770148 134.222491,150.978028 L135.851375,151.538672 C136.937297,151.897737 138.01088,152.326095 139.115312,152.634764 L142.41627,153.579671 C143.514532,153.919837 144.631305,154.159213 145.748078,154.423787 C146.86485,154.688361 147.975453,154.971833 149.098395,155.186012 C151.356621,155.576573 153.602506,156.055326 155.885411,156.294702 C160.430564,156.906584 165.010702,157.207526 169.595183,157.195859 L173.038051,157.195859 L176.480919,157.01913 C177.628541,156.981334 178.769994,156.861646 179.917617,156.754557 C181.065239,156.647467 182.206692,156.571875 183.341975,156.395492 C192.499546,155.238365 201.514868,153.114611 210.243237,150.058319 C217.590517,147.521124 224.746246,144.438809 231.653187,140.836031 C225.031928,136.465811 218.690657,131.668531 212.668053,126.473451 C201.798502,131.034576 190.389221,134.11825 178.732974,135.645344 C170.370923,136.741202 161.912133,136.836337 153.528466,135.928816 C149.331729,135.481895 145.165464,134.775062 141.052697,133.812225 C139.010422,133.276778 136.949637,132.823223 134.944383,132.155489 L131.902565,131.166487 L128.922449,130.082994 L127.429305,129.541248 C126.935704,129.358566 126.454443,129.138088 125.967012,128.91131 L123.042425,127.651435 C122.055223,127.260873 121.123551,126.750624 120.161028,126.309667 C119.198506,125.868711 118.248324,125.396258 117.310482,124.917505 L114.527805,123.380457 C113.602303,122.857609 112.676801,122.378856 111.769809,121.799313 L109.073513,120.11738 L107.722279,119.279563 L106.414236,118.372452 C104.680462,117.156673 102.903498,115.997587 101.249935,114.668419 L96.2583929,110.838397 C92.9601199,108.392292 89.3661693,106.391432 85.5657582,104.885486 C77.8993099,101.872105 69.6086833,100.896688 61.4718524,102.050766 C57.3887341,102.582948 53.3683175,103.532624 49.4711746,104.885486 C47.5208056,105.561255 45.607401,106.343505 43.7392313,107.228854 C42.8075591,107.67611 41.888227,108.135965 40.9812349,108.646214 C40.5369939,108.898189 40.0927529,109.156464 39.6670219,109.433636 L39.6053217,109.484031 C39.4250032,111.315635 39.0737747,113.125472 38.5564193,114.888897 L39.0130004,114.630622 C41.3199231,113.360643 43.7044065,112.24335 46.1517069,111.285653 C51.0527964,109.326032 56.2036295,108.093527 61.4471723,107.625715 C66.7154481,107.118404 72.030189,107.618296 77.1190086,109.099769 C79.644454,109.878585 82.0875289,110.9126 84.4119655,112.186464 C86.707141,113.49502 88.8494958,115.065207 90.7979303,116.866901 L90.5819798,117.125176 C88.5012767,115.562155 86.306584,114.163818 84.0170846,112.942389 C81.717815,111.767529 79.3126563,110.822423 76.835188,110.120268 C71.8472862,108.820736 66.6795642,108.394731 61.5520626,108.860393 C58.9867184,109.083388 56.4376072,109.47051 53.9197549,110.019478 C51.3968022,110.581005 48.9064317,111.285526 46.4602076,112.12977 C44.0027315,112.9652 41.603309,113.969084 39.278311,115.134573 L38.3157887,115.644822 C37.5114266,118.135895 36.3400854,120.487335 34.8420707,122.618232 C40.8383945,119.250165 47.3353222,116.909305 54.0740052,115.688918 C58.793793,114.852416 63.6027938,114.672297 68.3699283,115.153471 C73.1628032,115.65261 77.8573188,116.871011 82.3018206,118.769313 C86.7239128,120.69824 90.8739275,123.221389 94.6418492,126.271871 C95.1231103,126.643534 95.5858614,127.034096 96.0424424,127.430956 L97.3998456,128.577443 L100.071462,130.807423 C101.811406,132.344471 103.68092,133.711435 105.525754,135.109897 C109.225907,137.88328 113.078152,140.438687 117.063681,142.76364 C117.551112,143.07231 118.050883,143.355782 118.562995,143.620355 L120.080818,144.439275 C121.0927,144.981021 122.098413,145.541665 123.122635,146.070813 L126.238492,147.544867 C127.281225,148.036219 128.311617,148.540169 129.3852,148.949628 L132.612117,150.34809 Z M148.561604,145.151104 C154.099548,146.236139 159.709455,146.895226 165.344043,147.122809 C170.955908,147.344786 176.576114,147.083487 182.144992,146.341686 C182.836033,146.240896 183.539415,146.177903 184.230457,146.051915 L186.303581,145.680252 C187.691835,145.466073 189.061578,145.157403 190.437491,144.855033 C191.813404,144.552663 193.170807,144.225096 194.534381,143.840834 C195.897954,143.456572 197.243017,143.078609 198.59425,142.675449 C203.995141,140.988026 209.276659,138.925416 214.401827,136.502059 L214.728837,137.131997 C209.770925,140.039998 204.557113,142.467462 199.155721,144.38258 C197.798318,144.836135 196.447085,145.340085 195.065002,145.718048 C193.682919,146.096011 192.307005,146.536967 190.906412,146.845637 C189.505819,147.154306 188.117566,147.538568 186.698462,147.777944 L184.575977,148.168506 C183.872596,148.307092 183.156874,148.376385 182.447323,148.483475 C176.75536,149.313293 170.993249,149.524453 165.257663,149.113412 C159.537963,148.684655 153.883617,147.600652 148.401184,145.881832 L148.561604,145.151104 Z" id="Shape"></path>
                        <path d="M103.41561,138.221789 C101.564605,136.766633 99.6210507,135.349273 97.8625967,133.76183 L92.5317043,129.182183 C89.0343635,126.265609 85.1705706,123.839831 81.0431377,121.969397 C72.8185087,118.18977 63.5079571,117.093679 54.5120763,118.359854 C49.9752451,119.002616 45.5207935,120.149611 41.2280355,121.780415 C39.0769569,122.601929 36.9736607,123.548381 34.9284509,124.615135 C33.9103985,125.144283 32.8985162,125.698628 31.9236539,126.303368 C31.7323835,126.423056 31.5534531,126.555343 31.3621826,126.675031 C31.1709122,126.794719 30.9426217,127.052994 30.7451812,127.229376 C30.3749804,127.525447 29.6469187,128.167984 29.6407487,128.174283 C26.2950902,131.546575 25.8167279,136.889702 28.5081145,140.825383 C31.1995011,144.761064 36.277231,146.143705 40.5308239,144.099108 L40.5308239,144.099108 L41.1478253,143.758942 C61.1513694,133.000254 84.7403258,131.621558 105.815745,139.979316 C104.982793,139.349378 104.193031,138.776135 103.41561,138.221789 Z" id="Path"></path>
                        <path d="M233.36845,141.894326 C226.228817,146.020359 218.778616,149.559201 211.088529,152.47728 C206.679203,154.157382 202.180231,155.58122 197.613218,156.741958 C196.477935,157.056927 195.324142,157.321501 194.17652,157.579775 C193.028897,157.838049 191.881274,158.127821 190.715142,158.329401 L187.241424,158.990835 L183.736856,159.526283 C165.084902,162.253913 145.569147,160.011335 128.077157,152.540273 C167.61669,175.911136 216.20305,176.657597 256.413454,154.511978 C248.447942,150.870388 240.746765,146.653822 233.36845,141.894326 L233.36845,141.894326 Z" id="Path"></path>
                    </g>
                    <path d="M15.0779799,108.842406 C15.0779799,113.07641 11.7161275,116.508748 7.5690725,116.508748 C3.42201746,116.508748 0.0601651137,113.07641 0.0601651137,108.842406 C0.0601651137,104.608402 3.42201746,101.176064 7.5690725,101.176064 C11.7161275,101.176064 15.0779799,104.608402 15.0779799,108.842406 Z" id="Sun" fill="#F39367"></path>
                </g>
            </g>
        </g>
    </g>
</svg>