<svg width="263" height="171" xmlns="http://www.w3.org/2000/svg"><g fill-rule="nonzero" fill="none" opacity=".18"><g fill="#004E4F"><path d="M45.857 106.938c0 .513-.013 1.023-.037 1.531.228-.151.45-.309.685-.454a45.148 45.148 0 012.776-1.562 60.277 60.277 0 0118.06-5.814 49.618 49.618 0 0125.136 2.52 49.195 49.195 0 0111.242 6.173l5.035 3.811c1.629 1.298 3.381 2.425 5.084 3.603 6.89 4.64 14.279 8.46 22.02 11.383l2.913 1.078 2.95.926c1.955.63 3.973 1.115 5.966 1.65a99.65 99.65 0 0012.185 2.13c2.043.276 4.103.37 6.17.522 1.03.063 2.061.07 3.085.107l1.55.038h1.548c4.123 0 8.243-.236 12.34-.706a129.006 129.006 0 0024.273-5.197 138.292 138.292 0 008.638-2.986c-19.264-16.896-34.928-37.647-46.022-60.971a188.742 188.742 0 01-2.049-4.466c-10.502-21.6-27.507-39.196-48.52-50.206h-.032a107.864 107.864 0 00-12.47-5.575c-22.356-7.63-46.893-4.528-66.75 8.44C21.775 25.884 8.729 47.326 6.14 71.247c0 .258-.043.523-.043.787 0 2.043.799 4.001 2.215 5.444a7.462 7.462 0 005.337 2.248c.386.001.772-.026 1.154-.082a25.925 25.925 0 014.041-.315c7.17.002 14.044 2.912 19.11 8.09 5.066 5.18 7.91 12.201 7.903 19.52z"/><path d="M138.71 150.713c.53.233 1.067.422 1.61.63l1.629.56c1.085.36 2.159.788 3.263 1.096l3.301.945c1.099.34 2.215.58 3.332.844 1.117.265 2.228.548 3.35.763 2.259.39 4.505.869 6.788 1.108 4.545.612 9.125.913 13.71.901h3.442l3.443-.176c1.148-.038 2.29-.158 3.437-.265 1.147-.107 2.289-.183 3.424-.359a131.138 131.138 0 0026.901-6.337 157.344 157.344 0 0021.41-9.222 185.574 185.574 0 01-18.985-14.363 132.01 132.01 0 01-33.935 9.172 106.082 106.082 0 01-25.204.283 102.213 102.213 0 01-12.476-2.116c-2.042-.536-4.103-.99-6.108-1.657l-3.042-.989-2.98-1.083-1.494-.542a19.687 19.687 0 01-1.462-.63l-2.924-1.26c-.988-.39-1.92-.9-2.882-1.342a74.898 74.898 0 01-2.85-1.392l-2.783-1.537c-.926-.523-1.851-1.002-2.758-1.581l-2.696-1.682-1.352-.838-1.308-.907c-1.733-1.216-3.51-2.375-5.164-3.704l-4.991-3.83a47.046 47.046 0 00-10.693-5.953 47.565 47.565 0 00-24.094-2.835 60.392 60.392 0 00-12 2.835 56.827 56.827 0 00-5.733 2.343c-.931.448-1.85.907-2.758 1.418-.444.252-.888.51-1.314.787l-.062.05a29.45 29.45 0 01-1.048 5.405l.456-.258a60.579 60.579 0 017.139-3.345 54.156 54.156 0 0115.295-3.66 41.736 41.736 0 0115.672 1.474 39.23 39.23 0 017.293 3.087 34.782 34.782 0 016.386 4.68l-.216.259a50.534 50.534 0 00-6.565-4.183 39.388 39.388 0 00-7.182-2.822 44.601 44.601 0 00-15.283-1.26c-2.565.223-5.114.61-7.632 1.159a68.443 68.443 0 00-7.46 2.11 56.877 56.877 0 00-7.182 3.005l-.962.51a26.036 26.036 0 01-3.474 6.974 61.73 61.73 0 0119.232-6.93 51.987 51.987 0 0114.296-.535c4.793.5 9.487 1.718 13.932 3.616a53.797 53.797 0 0112.34 7.502c.481.372.944.763 1.4 1.16l1.358 1.146 2.672 2.23c1.74 1.537 3.61 2.904 5.454 4.302 3.7 2.774 7.552 5.33 11.538 7.654.487.309.987.592 1.5.857l1.517.819c1.012.542 2.018 1.102 3.042 1.631l3.116 1.474c1.042.492 2.073.996 3.146 1.405l3.227 1.399zm15.949-5.197a110.467 110.467 0 0016.782 1.971 97.922 97.922 0 0016.801-.78c.691-.102 1.395-.165 2.086-.29l2.073-.372c1.388-.214 2.758-.523 4.134-.825a72.025 72.025 0 004.097-1.015c1.363-.384 2.708-.762 4.06-1.165a122.31 122.31 0 0015.807-6.173l.327.63a90.671 90.671 0 01-15.573 7.25c-1.358.454-2.709.958-4.09 1.336-1.383.378-2.759.818-4.16 1.127-1.4.309-2.788.693-4.207.932l-2.123.391c-.703.139-1.419.208-2.129.315a79.667 79.667 0 01-17.19.63 75.109 75.109 0 01-16.856-3.232l.16-.73z"/><path d="M109.513 138.586c-1.851-1.455-3.795-2.872-5.553-4.46l-5.331-4.58a50.463 50.463 0 00-11.489-7.212c-8.224-3.78-17.535-4.876-26.53-3.61a61.822 61.822 0 00-13.285 3.42 59.607 59.607 0 00-6.3 2.836 45.499 45.499 0 00-3.004 1.688c-.191.12-.37.252-.562.372-.191.12-.42.377-.617.554-.37.296-1.098.938-1.104.945-3.346 3.372-3.824 8.715-1.133 12.65 2.692 3.937 7.77 5.32 12.023 3.275l.617-.34c20.004-10.76 43.592-12.138 64.668-3.78-.833-.63-1.623-1.203-2.4-1.758zM239.466 142.259a153.04 153.04 0 01-22.28 10.583 122.796 122.796 0 01-13.476 4.264c-1.135.315-2.289.58-3.436.838-1.148.259-2.296.548-3.462.75l-3.473.661-3.505.536c-18.652 2.727-38.168.485-55.66-6.986 39.54 23.37 88.126 24.117 128.337 1.971a182.48 182.48 0 01-23.045-12.617z"/></g><path d="M15.931 108.842c0 4.234-3.362 7.667-7.509 7.667s-7.509-3.433-7.509-7.667 3.362-7.666 7.51-7.666c4.146 0 7.508 3.432 7.508 7.666z" fill="#F39367"/></g></svg>