<svg width="87" height="54" xmlns="http://www.w3.org/2000/svg"><g fill-rule="nonzero" fill="none" opacity=".62"><g fill="#004E4F"><path d="M16.34 33.655c0 .162-.003.323-.011.483.073-.047.145-.097.22-.143.294-.177.599-.34.898-.493a19.781 19.781 0 015.832-1.836c2.73-.425 5.523-.15 8.118.795a16 16 0 013.63 1.95l1.627 1.203c.526.41 1.092.766 1.642 1.138a34.938 34.938 0 007.111 3.595l.941.34.952.292c.632.2 1.284.352 1.927.522 1.297.303 2.612.528 3.936.672.66.087 1.325.117 1.992.165.333.02.666.022.997.034l.5.012h.5c1.332 0 2.662-.075 3.985-.223a42.482 42.482 0 007.84-1.641c.939-.284 1.869-.598 2.79-.943A59.866 59.866 0 0156.24 18.912a35.651 35.651 0 00-15.67-15.854h-.01a35.235 35.235 0 00-4.027-1.76 25.224 25.224 0 00-21.558 2.665 25.14 25.14 0 00-11.462 18.42c0 .082-.014.166-.014.25 0 .644.258 1.263.715 1.718.458.456 1.078.711 1.724.71.125 0 .25-.008.373-.026a8.733 8.733 0 017.477 2.455 8.704 8.704 0 012.552 6.165z"/><path d="M46.328 47.478c.171.074.345.134.52.2l.526.176c.35.114.698.249 1.054.346l1.066.299c.355.107.716.183 1.076.266.361.084.72.173 1.082.241.73.123 1.455.275 2.192.35 1.468.193 2.947.288 4.428.285h1.112l1.112-.056c.37-.012.74-.05 1.11-.084.37-.033.739-.057 1.106-.113a43.159 43.159 0 008.688-2.001 51.432 51.432 0 006.914-2.912 59.829 59.829 0 01-6.131-4.536 43.399 43.399 0 01-10.96 2.896c-2.7.346-5.432.376-8.14.09a33.696 33.696 0 01-4.029-.669c-.66-.169-1.325-.312-1.973-.523l-.982-.312-.963-.342-.482-.171a6.436 6.436 0 01-.472-.2l-.945-.397c-.318-.123-.62-.284-.93-.424-.311-.139-.618-.288-.92-.44l-.9-.485c-.298-.165-.597-.316-.89-.5l-.87-.53-.437-.265-.423-.286c-.56-.384-1.134-.75-1.668-1.17l-1.612-1.21a15.296 15.296 0 00-3.453-1.88 15.685 15.685 0 00-7.781-.894 19.875 19.875 0 00-3.876.895c-.63.213-1.248.46-1.851.74-.301.141-.598.286-.89.447a8.16 8.16 0 00-.425.249l-.02.016a9.117 9.117 0 01-.339 1.707l.148-.082a19.771 19.771 0 012.305-1.056 17.82 17.82 0 014.94-1.156 13.772 13.772 0 015.061.466c.816.246 1.605.572 2.355.974.742.414 1.434.91 2.063 1.478l-.07.082a16.374 16.374 0 00-2.12-1.321c-.743-.371-1.52-.67-2.32-.891a14.72 14.72 0 00-4.935-.398c-.829.07-1.652.193-2.465.366-.815.177-1.62.4-2.41.666-.793.264-1.568.581-2.319.95l-.31.16a8.15 8.15 0 01-1.123 2.203 20.23 20.23 0 016.212-2.189 17.165 17.165 0 014.617-.169 15.84 15.84 0 014.499 1.142 17.452 17.452 0 013.985 2.37c.156.117.305.24.453.365l.438.362.863.705c.562.485 1.165.917 1.761 1.358a38.95 38.95 0 003.727 2.417c.157.098.318.187.484.27l.49.26c.327.17.652.348.982.515l1.007.465c.336.155.67.314 1.016.444l1.042.441zm5.151-1.64c1.789.342 3.6.55 5.42.622 1.812.07 3.628-.013 5.426-.247.223-.032.45-.052.674-.091l.67-.118c.447-.067.89-.165 1.334-.26.445-.096.883-.2 1.323-.32.44-.122.875-.241 1.311-.369a40.044 40.044 0 005.106-1.95l.105.2a29.595 29.595 0 01-5.03 2.29c-.438.143-.874.302-1.32.421-.447.12-.891.259-1.343.356-.453.098-.901.22-1.36.295l-.685.123c-.227.044-.458.066-.687.1-1.839.262-3.7.328-5.552.198a24.746 24.746 0 01-5.444-1.02l.052-.23z"/><path d="M36.899 43.649c-.598-.46-1.226-.907-1.794-1.408l-1.721-1.447a16.357 16.357 0 00-3.71-2.277c-2.657-1.194-5.664-1.54-8.569-1.14a20.333 20.333 0 00-4.29 1.08 19.47 19.47 0 00-2.035.895 14.79 14.79 0 00-.97.533c-.062.038-.12.08-.181.118-.062.037-.136.119-.2.175-.12.093-.354.296-.356.298a3.107 3.107 0 00-.366 3.995 3.12 3.12 0 003.883 1.034l.199-.107a25.258 25.258 0 0120.885-1.194c-.27-.199-.524-.38-.775-.555zM78.868 44.809a49.933 49.933 0 01-7.195 3.342c-1.424.53-2.877.98-4.352 1.346-.367.1-.74.183-1.11.265-.37.082-.742.173-1.118.237l-1.122.209-1.132.169c-6.024.861-12.326.153-17.976-2.206a42.538 42.538 0 0041.448.622 59.356 59.356 0 01-7.443-3.984z"/></g><path d="M5.5 34.5a2.5 2.5 0 11-5 0 2.5 2.5 0 015 0z" fill="#F39367"/></g></svg>