<?xml version="1.0" encoding="UTF-8"?>
<svg width="80px" height="80px" viewBox="0 0 80 80" version="1.1" xmlns="http://www.w3.org/2000/svg" xmlns:xlink="http://www.w3.org/1999/xlink">
    <!-- Generator: Sketch 64 (93537) - https://sketch.com -->
    <title>Robot</title>
    <desc>Created with Sketch.</desc>
    <g id="Robot" stroke="none" stroke-width="1" fill="none" fill-rule="evenodd">
        <g id="icon" transform="translate(14.000000, 12.000000)">
            <path d="M30.1728007,0 C35.2268104,0 39.1761686,3.9919938 38.993939,8.91636771 C38.9805349,9.27858565 38.9450967,9.64046703 38.8878892,10 L37.837432,16.7057485 C37.5484456,18.586518 35.9525459,20 34.1158765,20 L17.8850423,20 C16.0483729,20 14.4524732,18.586518 14.1634867,16.7057485 L13.1130296,10 C12.3275645,5.1121285 15.7184264,0.664567055 20.7169289,0.0660934659 C21.0852579,0.0220720582 21.4563646,0 21.8281181,0 L30.1728007,0 Z M32.4906771,7 L19.5093229,7 C19.3530714,7 19.1970587,7.01220724 19.0427088,7.03651029 C17.4060186,7.29421417 16.2881294,8.82992397 16.5458332,10.4666141 L16.5458332,10.4666141 L17.0181961,13.4666141 C17.2478805,14.9253515 18.5049767,16 19.9816858,16 L19.9816858,16 L32.0183142,16 C33.4950233,16 34.7521195,14.9253515 34.9818039,13.4666141 L34.9818039,13.4666141 L35.4541668,10.4666141 C35.4784698,10.3122642 35.4906771,10.1562515 35.4906771,10 C35.4906771,8.34314575 34.1475313,7 32.4906771,7 L32.4906771,7 Z" id="Combined-Shape" fill="#5C7D7B"></path>
            <path d="M16.2306094,55 C14.6555554,53.4640514 11.4621722,35.0352055 12.1050541,30.0432537 C12.747936,25.0513018 15.2023998,23 17.6508616,23 L34.3491384,23 C36.7976002,23 39.252064,25.0513018 39.8949459,30.0432537 C40.5285107,34.9628584 37.3936705,52.9750523 35.8714045,54.9875261 C35.1089369,55.9955274 32.5,57 26,57 C19.5,57 17.0167555,55.7666278 16.2306094,55 Z" id="Body" fill="#5C7D7B"></path>
            <g id="Arms" transform="translate(0.000000, 20.000000)" fill="#89ABA8">
                <path d="M7.19552592,1.41345945 C7.19552592,1.41345945 7.19552592,1.41345945 7.19552592,1.41345945 C11.1818115,2.29757251 13.6966192,6.2458107 12.8125061,10.2320963 C12.7921155,10.3240336 12.7699701,10.4155729 12.7460821,10.5066641 C11.9158853,13.6723831 11.2923278,15.8859735 10.8753992,17.1474326 C9.85760071,20.2268839 6.87427453,25.9265171 5.95529955,27.1381375 C4.65705182,28.5847522 3.26429955,28.0393057 3.74663968,26.5463288 C5.26661523,22.8424782 7.0583697,18.6594821 7.96912626,16.3686991 C8.40963186,15.2607162 8.8323946,13.6829442 9.52965827,10.5635073 C11.0594515,3.57717211 7.59177629,1.64516697 7.19552592,1.41345945 Z" id="Rectangle-Copy-3" transform="translate(9.100867, 14.699194) scale(-1, 1) rotate(-15.000000) translate(-9.100867, -14.699194) "></path>
                <path d="M40.4160893,1.41345945 C40.4160893,1.41345945 40.4160893,1.41345945 40.4160893,1.41345945 C44.4023748,2.29757251 46.9171825,6.2458107 46.0330695,10.2320963 C46.0126788,10.3240336 45.9905335,10.4155729 45.9666455,10.5066641 C45.1364486,13.6723831 44.5128911,15.8859735 44.0959626,17.1474326 C43.0781641,20.2268839 40.0948379,25.9265171 39.1758629,27.1381375 C37.8776152,28.5847522 36.4848629,28.0393057 36.967203,26.5463288 C38.4871786,22.8424782 40.2789331,18.6594821 41.1896896,16.3686991 C41.6301952,15.2607162 42.0529579,13.6829442 42.7502216,10.5635073 C44.2800148,3.57717211 40.8123396,1.64516697 40.4160893,1.41345945 Z" id="Rectangle-Copy-4" transform="translate(42.321430, 14.699194) rotate(-15.000000) translate(-42.321430, -14.699194) "></path>
            </g>
            <g id="Eyes" transform="translate(19.000000, 8.000000)" fill="#FA8656">
                <path d="M2.5,0.846153846 C3.88071187,0.846153846 5,1.96544197 5,3.34615385 C5,4.72686572 3.88071187,5.84615385 2.5,5.84615385 C1.11928813,5.84615385 0,4.72686572 0,3.34615385 C0,1.96544197 1.11928813,0.846153846 2.5,0.846153846 Z M11.5,0.846153846 C12.8807119,0.846153846 14,1.96544197 14,3.34615385 C14,4.72686572 12.8807119,5.84615385 11.5,5.84615385 C10.1192881,5.84615385 9,4.72686572 9,3.34615385 C9,1.96544197 10.1192881,0.846153846 11.5,0.846153846 Z" id="Shape"></path>
            </g>
        </g>
    </g>
</svg>