<svg width="80" height="80" xmlns="http://www.w3.org/2000/svg"><g fill="none" fill-rule="evenodd"><path d="M44.173 12c5.054 0 9.003 3.992 8.82 8.916A9.019 9.019 0 0152.889 22l-1.05 6.706c-.29 1.88-1.885 3.294-3.722 3.294H31.885c-1.837 0-3.433-1.413-3.722-3.294L27.113 22c-.785-4.888 2.605-9.335 7.604-9.934.368-.044.74-.066 1.111-.066h8.345zm2.318 7H33.509a3 3 0 00-2.963 3.467l.472 3A3 3 0 0033.982 28h12.036a3 3 0 002.964-2.533l.472-3A3 3 0 0046.491 19zM30.23 67c-1.574-1.536-4.768-19.965-4.125-24.957.643-4.992 3.097-7.043 5.546-7.043h16.698c2.449 0 4.903 2.051 5.546 7.043.634 4.92-2.501 22.932-4.024 24.945C49.11 67.996 46.5 69 40 69s-8.983-1.233-9.77-2z" fill="#5C7D7B"/><g fill="#89ABA8"><path d="M28.38 34.36a7.393 7.393 0 00-7.715 7.346c-.017 3.273.012 5.572.088 6.899.186 3.238 1.593 9.515 2.167 10.923.88 1.734 2.366 1.567 2.286 0-.51-3.97-1.157-8.475-1.444-10.923-.139-1.185-.139-2.818-.005-6.012.33-7.144 4.18-8.112 4.623-8.234zM51.042 34.36a7.393 7.393 0 017.715 7.346c.018 3.273-.012 5.572-.088 6.899-.186 3.238-1.592 9.515-2.167 10.923-.88 1.734-2.366 1.567-2.286 0 .51-3.97 1.158-8.475 1.444-10.923.14-1.185.14-2.818.005-6.012-.33-7.144-4.18-8.112-4.623-8.234z"/></g><path d="M35.5 20.846a2.5 2.5 0 110 5 2.5 2.5 0 010-5zm9 0a2.5 2.5 0 110 5 2.5 2.5 0 010-5z" fill="#FA8656"/></g></svg>